<mxfile host="app.diagrams.net" modified="2022-12-12T08:11:21.740Z" agent="5.0 (Windows NT 10.0; Win64; x64) AppleWebKit/537.36 (KHTML, like Gecko) Chrome/108.0.0.0 Safari/537.36" etag="7Dqv-eevgkEvzmQGI55S" version="20.6.0" type="github">
  <diagram name="Page-1" id="58cdce13-f638-feb5-8d6f-7d28b1aa9fa0">
    <mxGraphModel dx="2307" dy="1287" grid="1" gridSize="10" guides="1" tooltips="1" connect="1" arrows="1" fold="1" page="1" pageScale="1" pageWidth="1100" pageHeight="850" background="none" math="0" shadow="0">
      <root>
        <mxCell id="0" />
        <mxCell id="1" parent="0" />
        <mxCell id="eKGAcMH3AnmFuZBXyHEG-39" value="Bootloader" style="shape=umlFrame;whiteSpace=wrap;html=1;width=90;height=30;" parent="1" vertex="1">
          <mxGeometry x="150" y="40" width="1160" height="780" as="geometry" />
        </mxCell>
        <mxCell id="eKGAcMH3AnmFuZBXyHEG-1" value="" style="ellipse;html=1;shape=startState;fillColor=#000000;strokeColor=#ff0000;" parent="1" vertex="1">
          <mxGeometry x="342.13" y="110" width="30" height="30" as="geometry" />
        </mxCell>
        <mxCell id="eKGAcMH3AnmFuZBXyHEG-2" value="" style="edgeStyle=orthogonalEdgeStyle;html=1;verticalAlign=bottom;endArrow=open;endSize=8;strokeColor=#ff0000;rounded=0;" parent="1" source="eKGAcMH3AnmFuZBXyHEG-1" edge="1">
          <mxGeometry relative="1" as="geometry">
            <mxPoint x="357.13" y="200" as="targetPoint" />
          </mxGeometry>
        </mxCell>
        <mxCell id="eKGAcMH3AnmFuZBXyHEG-3" value="Check PF11 Pin interrupt&lt;br&gt;(in 1 sec)" style="rhombus;whiteSpace=wrap;html=1;" parent="1" vertex="1">
          <mxGeometry x="247.13" y="200" width="220" height="70" as="geometry" />
        </mxCell>
        <mxCell id="eKGAcMH3AnmFuZBXyHEG-4" value="Check Uart interrupt" style="rhombus;whiteSpace=wrap;html=1;" parent="1" vertex="1">
          <mxGeometry x="254.63" y="320" width="205" height="60" as="geometry" />
        </mxCell>
        <mxCell id="eKGAcMH3AnmFuZBXyHEG-5" value="" style="endArrow=open;html=1;rounded=0;exitX=0.5;exitY=1;exitDx=0;exitDy=0;entryX=0.5;entryY=0;entryDx=0;entryDy=0;strokeColor=#FF0000;endFill=0;" parent="1" source="eKGAcMH3AnmFuZBXyHEG-3" target="eKGAcMH3AnmFuZBXyHEG-4" edge="1">
          <mxGeometry width="50" height="50" relative="1" as="geometry">
            <mxPoint x="582.13" y="220" as="sourcePoint" />
            <mxPoint x="632.13" y="170" as="targetPoint" />
          </mxGeometry>
        </mxCell>
        <mxCell id="eKGAcMH3AnmFuZBXyHEG-6" value="" style="endArrow=open;html=1;rounded=0;exitX=0;exitY=0.5;exitDx=0;exitDy=0;strokeColor=#FF0000;endFill=0;edgeStyle=orthogonalEdgeStyle;" parent="1" source="eKGAcMH3AnmFuZBXyHEG-4" edge="1">
          <mxGeometry width="50" height="50" relative="1" as="geometry">
            <mxPoint x="367.13" y="280" as="sourcePoint" />
            <mxPoint x="352.13" y="150" as="targetPoint" />
            <Array as="points">
              <mxPoint x="212.13" y="350" />
              <mxPoint x="212.13" y="150" />
            </Array>
          </mxGeometry>
        </mxCell>
        <mxCell id="eKGAcMH3AnmFuZBXyHEG-7" value="" style="endArrow=open;html=1;rounded=0;exitX=0.5;exitY=1;exitDx=0;exitDy=0;entryX=0.5;entryY=0;entryDx=0;entryDy=0;strokeColor=#FF0000;endFill=0;" parent="1" edge="1">
          <mxGeometry width="50" height="50" relative="1" as="geometry">
            <mxPoint x="356.65" y="380" as="sourcePoint" />
            <mxPoint x="356.65" y="430" as="targetPoint" />
          </mxGeometry>
        </mxCell>
        <mxCell id="eKGAcMH3AnmFuZBXyHEG-8" value="YES" style="text;html=1;strokeColor=none;fillColor=none;align=center;verticalAlign=middle;whiteSpace=wrap;rounded=0;" parent="1" vertex="1">
          <mxGeometry x="352.13" y="280" width="60" height="30" as="geometry" />
        </mxCell>
        <mxCell id="eKGAcMH3AnmFuZBXyHEG-9" value="Check PF12 Pin is High" style="rhombus;whiteSpace=wrap;html=1;" parent="1" vertex="1">
          <mxGeometry x="650" y="317.5" width="220" height="65" as="geometry" />
        </mxCell>
        <mxCell id="eKGAcMH3AnmFuZBXyHEG-10" value="" style="endArrow=open;html=1;rounded=0;exitX=1;exitY=0.5;exitDx=0;exitDy=0;strokeColor=#FF0000;endFill=0;edgeStyle=orthogonalEdgeStyle;entryX=0.5;entryY=0;entryDx=0;entryDy=0;" parent="1" source="eKGAcMH3AnmFuZBXyHEG-3" target="eKGAcMH3AnmFuZBXyHEG-9" edge="1">
          <mxGeometry width="50" height="50" relative="1" as="geometry">
            <mxPoint x="264.63" y="360" as="sourcePoint" />
            <mxPoint x="362.13" y="160" as="targetPoint" />
            <Array as="points">
              <mxPoint x="760" y="235" />
            </Array>
          </mxGeometry>
        </mxCell>
        <mxCell id="eKGAcMH3AnmFuZBXyHEG-11" value="NO" style="text;html=1;strokeColor=none;fillColor=none;align=center;verticalAlign=middle;whiteSpace=wrap;rounded=0;" parent="1" vertex="1">
          <mxGeometry x="467.13" y="204" width="60" height="30" as="geometry" />
        </mxCell>
        <mxCell id="eKGAcMH3AnmFuZBXyHEG-12" value="NO" style="text;html=1;strokeColor=none;fillColor=none;align=center;verticalAlign=middle;whiteSpace=wrap;rounded=0;" parent="1" vertex="1">
          <mxGeometry x="212.13" y="320" width="60" height="30" as="geometry" />
        </mxCell>
        <mxCell id="eKGAcMH3AnmFuZBXyHEG-13" value="YES" style="text;html=1;strokeColor=none;fillColor=none;align=center;verticalAlign=middle;whiteSpace=wrap;rounded=0;" parent="1" vertex="1">
          <mxGeometry x="352.13" y="390" width="60" height="30" as="geometry" />
        </mxCell>
        <mxCell id="eKGAcMH3AnmFuZBXyHEG-14" value="Confirm START" style="rounded=0;whiteSpace=wrap;html=1;" parent="1" vertex="1">
          <mxGeometry x="291.13" y="430" width="125" height="30" as="geometry" />
        </mxCell>
        <mxCell id="eKGAcMH3AnmFuZBXyHEG-15" value="Confirm HEAD&lt;br&gt;&lt;span style=&quot;text-align: left; background-color: initial;&quot;&gt;&lt;br&gt;사용할 SLOT 선택&lt;br&gt;&lt;/span&gt;(SLOT0 혹은 SLOT1)" style="rounded=0;whiteSpace=wrap;html=1;" parent="1" vertex="1">
          <mxGeometry x="279.88" y="480" width="147.5" height="70" as="geometry" />
        </mxCell>
        <mxCell id="eKGAcMH3AnmFuZBXyHEG-16" value="Confirm DATA&lt;br&gt;&lt;span style=&quot;text-align: left; background-color: initial;&quot;&gt;&lt;br&gt;(첫 데이터 write시에)&lt;br&gt;configuration Flash memory update&lt;br&gt;&lt;br&gt;해당 SLOT address에 (.bin file) data write&lt;br&gt;&lt;/span&gt;" style="rounded=0;whiteSpace=wrap;html=1;" parent="1" vertex="1">
          <mxGeometry x="233" y="580" width="242.25" height="90" as="geometry" />
        </mxCell>
        <mxCell id="eKGAcMH3AnmFuZBXyHEG-17" value="Confirm END&lt;br&gt;&lt;span style=&quot;text-align: left; background-color: initial;&quot;&gt;&lt;br&gt;Data wrtie to configuration Flash memory&lt;br&gt;(data : new version 여부, crc, app szie, valid app 여부)&lt;br&gt;&lt;/span&gt;" style="rounded=0;whiteSpace=wrap;html=1;" parent="1" vertex="1">
          <mxGeometry x="198" y="710" width="312.13" height="80" as="geometry" />
        </mxCell>
        <mxCell id="eKGAcMH3AnmFuZBXyHEG-18" value="" style="endArrow=open;html=1;rounded=0;exitX=0.5;exitY=1;exitDx=0;exitDy=0;entryX=0.5;entryY=0;entryDx=0;entryDy=0;strokeColor=#FF0000;endFill=0;" parent="1" edge="1">
          <mxGeometry width="50" height="50" relative="1" as="geometry">
            <mxPoint x="356.6300000000001" y="460" as="sourcePoint" />
            <mxPoint x="356.6300000000001" y="480" as="targetPoint" />
          </mxGeometry>
        </mxCell>
        <mxCell id="eKGAcMH3AnmFuZBXyHEG-19" value="" style="endArrow=open;html=1;rounded=0;exitX=0.5;exitY=1;exitDx=0;exitDy=0;strokeColor=#FF0000;endFill=0;entryX=0.51;entryY=0.01;entryDx=0;entryDy=0;entryPerimeter=0;" parent="1" target="eKGAcMH3AnmFuZBXyHEG-16" edge="1">
          <mxGeometry width="50" height="50" relative="1" as="geometry">
            <mxPoint x="356.6300000000001" y="550" as="sourcePoint" />
            <mxPoint x="357.22800000000007" y="580" as="targetPoint" />
          </mxGeometry>
        </mxCell>
        <mxCell id="eKGAcMH3AnmFuZBXyHEG-20" value="" style="endArrow=open;html=1;rounded=0;exitX=0.5;exitY=1;exitDx=0;exitDy=0;strokeColor=#FF0000;endFill=0;entryX=0.512;entryY=-0.006;entryDx=0;entryDy=0;entryPerimeter=0;" parent="1" target="eKGAcMH3AnmFuZBXyHEG-17" edge="1">
          <mxGeometry width="50" height="50" relative="1" as="geometry">
            <mxPoint x="358.125" y="670" as="sourcePoint" />
            <mxPoint x="358.595" y="710" as="targetPoint" />
          </mxGeometry>
        </mxCell>
        <mxCell id="eKGAcMH3AnmFuZBXyHEG-21" value="wrtie Prev version app (in SLOT Flash memory) to application Flash memroy" style="rounded=0;whiteSpace=wrap;html=1;" parent="1" vertex="1">
          <mxGeometry x="647" y="443" width="240" height="60" as="geometry" />
        </mxCell>
        <mxCell id="eKGAcMH3AnmFuZBXyHEG-23" value="" style="edgeStyle=orthogonalEdgeStyle;html=1;verticalAlign=bottom;endArrow=open;endSize=8;strokeColor=#ff0000;rounded=0;" parent="1" edge="1">
          <mxGeometry relative="1" as="geometry">
            <mxPoint x="759.7099999999998" y="442.5" as="targetPoint" />
            <mxPoint x="759.7099999999998" y="382.5" as="sourcePoint" />
          </mxGeometry>
        </mxCell>
        <mxCell id="eKGAcMH3AnmFuZBXyHEG-24" value="YES" style="text;html=1;strokeColor=none;fillColor=none;align=center;verticalAlign=middle;whiteSpace=wrap;rounded=0;" parent="1" vertex="1">
          <mxGeometry x="760" y="395" width="60" height="30" as="geometry" />
        </mxCell>
        <mxCell id="eKGAcMH3AnmFuZBXyHEG-25" value="write New version app (in SLOT Flash memory)&lt;br&gt;&amp;nbsp;to Flash memory" style="rounded=0;whiteSpace=wrap;html=1;" parent="1" vertex="1">
          <mxGeometry x="1040" y="443" width="240" height="60" as="geometry" />
        </mxCell>
        <mxCell id="eKGAcMH3AnmFuZBXyHEG-26" value="" style="endArrow=open;html=1;rounded=0;exitX=1;exitY=0.5;exitDx=0;exitDy=0;strokeColor=#FF0000;endFill=0;edgeStyle=orthogonalEdgeStyle;entryX=0.5;entryY=0;entryDx=0;entryDy=0;" parent="1" source="eKGAcMH3AnmFuZBXyHEG-9" target="eKGAcMH3AnmFuZBXyHEG-25" edge="1">
          <mxGeometry width="50" height="50" relative="1" as="geometry">
            <mxPoint x="477.1300000000001" y="245" as="sourcePoint" />
            <mxPoint x="770" y="327.5" as="targetPoint" />
            <Array as="points">
              <mxPoint x="1160" y="350" />
            </Array>
          </mxGeometry>
        </mxCell>
        <mxCell id="eKGAcMH3AnmFuZBXyHEG-27" value="NO" style="text;html=1;strokeColor=none;fillColor=none;align=center;verticalAlign=middle;whiteSpace=wrap;rounded=0;" parent="1" vertex="1">
          <mxGeometry x="910" y="317.5" width="60" height="30" as="geometry" />
        </mxCell>
        <mxCell id="eKGAcMH3AnmFuZBXyHEG-28" value="Is CRC ok?" style="rhombus;whiteSpace=wrap;html=1;" parent="1" vertex="1">
          <mxGeometry x="674.5" y="550" width="175" height="50" as="geometry" />
        </mxCell>
        <mxCell id="eKGAcMH3AnmFuZBXyHEG-29" value="" style="edgeStyle=orthogonalEdgeStyle;html=1;verticalAlign=bottom;endArrow=open;endSize=8;strokeColor=#ff0000;rounded=0;exitX=0.5;exitY=1;exitDx=0;exitDy=0;entryX=0.5;entryY=0;entryDx=0;entryDy=0;" parent="1" target="eKGAcMH3AnmFuZBXyHEG-28" edge="1">
          <mxGeometry relative="1" as="geometry">
            <mxPoint x="764.7099999999998" y="452.5" as="targetPoint" />
            <mxPoint x="762" y="503" as="sourcePoint" />
          </mxGeometry>
        </mxCell>
        <mxCell id="eKGAcMH3AnmFuZBXyHEG-30" value="" style="endArrow=open;html=1;rounded=0;exitX=0;exitY=0.5;exitDx=0;exitDy=0;strokeColor=#FF0000;endFill=0;edgeStyle=orthogonalEdgeStyle;" parent="1" edge="1">
          <mxGeometry width="50" height="50" relative="1" as="geometry">
            <mxPoint x="673.4999999999999" y="575.0200000000001" as="sourcePoint" />
            <mxPoint x="760" y="530" as="targetPoint" />
            <Array as="points">
              <mxPoint x="631" y="575" />
              <mxPoint x="631" y="530" />
            </Array>
          </mxGeometry>
        </mxCell>
        <mxCell id="eKGAcMH3AnmFuZBXyHEG-31" value="NO" style="text;html=1;strokeColor=none;fillColor=none;align=center;verticalAlign=middle;whiteSpace=wrap;rounded=0;" parent="1" vertex="1">
          <mxGeometry x="631" y="545.0200000000001" width="60" height="30" as="geometry" />
        </mxCell>
        <mxCell id="eKGAcMH3AnmFuZBXyHEG-32" value="Is CRC ok?" style="rhombus;whiteSpace=wrap;html=1;" parent="1" vertex="1">
          <mxGeometry x="1073.5" y="550" width="175" height="50" as="geometry" />
        </mxCell>
        <mxCell id="eKGAcMH3AnmFuZBXyHEG-33" value="" style="edgeStyle=orthogonalEdgeStyle;html=1;verticalAlign=bottom;endArrow=open;endSize=8;strokeColor=#ff0000;rounded=0;exitX=0.5;exitY=1;exitDx=0;exitDy=0;entryX=0.5;entryY=0;entryDx=0;entryDy=0;" parent="1" target="eKGAcMH3AnmFuZBXyHEG-32" edge="1">
          <mxGeometry relative="1" as="geometry">
            <mxPoint x="1163.7099999999998" y="452.5" as="targetPoint" />
            <mxPoint x="1161" y="503.0000000000001" as="sourcePoint" />
          </mxGeometry>
        </mxCell>
        <mxCell id="eKGAcMH3AnmFuZBXyHEG-34" value="" style="endArrow=open;html=1;rounded=0;exitX=0;exitY=0.5;exitDx=0;exitDy=0;strokeColor=#FF0000;endFill=0;edgeStyle=orthogonalEdgeStyle;" parent="1" edge="1">
          <mxGeometry width="50" height="50" relative="1" as="geometry">
            <mxPoint x="1072.5" y="575.02" as="sourcePoint" />
            <mxPoint x="1159" y="530" as="targetPoint" />
            <Array as="points">
              <mxPoint x="1030" y="575" />
              <mxPoint x="1030" y="530" />
            </Array>
          </mxGeometry>
        </mxCell>
        <mxCell id="eKGAcMH3AnmFuZBXyHEG-35" value="NO" style="text;html=1;strokeColor=none;fillColor=none;align=center;verticalAlign=middle;whiteSpace=wrap;rounded=0;" parent="1" vertex="1">
          <mxGeometry x="1030" y="545.0200000000001" width="60" height="30" as="geometry" />
        </mxCell>
        <mxCell id="eKGAcMH3AnmFuZBXyHEG-36" value="" style="ellipse;html=1;shape=startState;fillColor=#000000;strokeColor=#ff0000;" parent="1" vertex="1">
          <mxGeometry x="1700" y="266" width="30" height="30" as="geometry" />
        </mxCell>
        <mxCell id="eKGAcMH3AnmFuZBXyHEG-37" value="" style="edgeStyle=orthogonalEdgeStyle;html=1;verticalAlign=bottom;endArrow=open;endSize=8;strokeColor=#ff0000;rounded=0;" parent="1" source="eKGAcMH3AnmFuZBXyHEG-36" edge="1">
          <mxGeometry relative="1" as="geometry">
            <mxPoint x="1715" y="356" as="targetPoint" />
          </mxGeometry>
        </mxCell>
        <mxCell id="eKGAcMH3AnmFuZBXyHEG-38" value="Start application" style="rounded=1;whiteSpace=wrap;html=1;perimeterSpacing=0;" parent="1" vertex="1">
          <mxGeometry x="1655" y="356" width="120" height="40" as="geometry" />
        </mxCell>
        <mxCell id="eKGAcMH3AnmFuZBXyHEG-40" value="Application" style="shape=umlFrame;whiteSpace=wrap;html=1;width=80;height=30;" parent="1" vertex="1">
          <mxGeometry x="1560" y="206" width="370" height="300" as="geometry" />
        </mxCell>
        <mxCell id="eKGAcMH3AnmFuZBXyHEG-42" value="" style="endArrow=open;html=1;rounded=0;exitX=1;exitY=0.5;exitDx=0;exitDy=0;strokeColor=#FF0000;endFill=0;edgeStyle=orthogonalEdgeStyle;entryX=-0.007;entryY=0.283;entryDx=0;entryDy=0;entryPerimeter=0;" parent="1" source="eKGAcMH3AnmFuZBXyHEG-32" target="eKGAcMH3AnmFuZBXyHEG-40" edge="1">
          <mxGeometry width="50" height="50" relative="1" as="geometry">
            <mxPoint x="1332.44" y="565.02" as="sourcePoint" />
            <mxPoint x="1418.94" y="520" as="targetPoint" />
            <Array as="points">
              <mxPoint x="1420" y="575" />
              <mxPoint x="1420" y="289" />
            </Array>
          </mxGeometry>
        </mxCell>
        <mxCell id="eKGAcMH3AnmFuZBXyHEG-45" value="" style="endArrow=open;html=1;rounded=0;strokeColor=#FF0000;endFill=0;edgeStyle=orthogonalEdgeStyle;exitX=0.5;exitY=1;exitDx=0;exitDy=0;entryX=-0.012;entryY=0.6;entryDx=0;entryDy=0;entryPerimeter=0;" parent="1" source="eKGAcMH3AnmFuZBXyHEG-28" target="eKGAcMH3AnmFuZBXyHEG-40" edge="1">
          <mxGeometry width="50" height="50" relative="1" as="geometry">
            <mxPoint x="862" y="630" as="sourcePoint" />
            <mxPoint x="948.94" y="620" as="targetPoint" />
            <Array as="points">
              <mxPoint x="762" y="665" />
              <mxPoint x="1500" y="665" />
              <mxPoint x="1500" y="384" />
            </Array>
          </mxGeometry>
        </mxCell>
        <mxCell id="eKGAcMH3AnmFuZBXyHEG-46" value="YES" style="text;html=1;strokeColor=none;fillColor=none;align=center;verticalAlign=middle;whiteSpace=wrap;rounded=0;" parent="1" vertex="1">
          <mxGeometry x="760" y="610" width="60" height="30" as="geometry" />
        </mxCell>
        <mxCell id="eKGAcMH3AnmFuZBXyHEG-47" value="YES" style="text;html=1;strokeColor=none;fillColor=none;align=center;verticalAlign=middle;whiteSpace=wrap;rounded=0;" parent="1" vertex="1">
          <mxGeometry x="1248.5" y="545.02" width="60" height="30" as="geometry" />
        </mxCell>
      </root>
    </mxGraphModel>
  </diagram>
</mxfile>
